<svg width="10" height="10" viewBox="0 0 10 10" fill="none" xmlns="http://www.w3.org/2000/svg">
<path d="M8.71973 0.219666C9.01262 -0.0732277 9.48738 -0.0732277 9.78027 0.219666C10.0732 0.512559 10.0732 0.987319 9.78027 1.28021L6.06055 4.99994L9.78027 8.71967C10.0732 9.01256 10.0732 9.48732 9.78027 9.78021C9.48738 10.0731 9.01262 10.0731 8.71973 9.78021L5 6.06049L1.28027 9.78021C0.98738 10.0731 0.51262 10.0731 0.219727 9.78021C-0.0731667 9.48732 -0.0731667 9.01256 0.219727 8.71967L3.93945 4.99994L0.219727 1.28021C-0.0731667 0.987319 -0.0731667 0.512559 0.219727 0.219666C0.51262 -0.0732277 0.98738 -0.0732277 1.28027 0.219666L5 3.93939L8.71973 0.219666Z" fill="#363E45" fill-opacity="0.32"/>
</svg>
